<svg width="39" height="39" viewBox="0 0 39 39" fill="none" xmlns="http://www.w3.org/2000/svg">
<path fill-rule="evenodd" clip-rule="evenodd" d="M4.99213 6.27792C4.9958 6.27792 4.90413 6.37325 4.78863 6.48692C4.34497 6.91775 3.42647 7.81425 3.41721 9.68975C3.40263 12.3132 5.1278 17.1844 13.4346 25.4894C21.703 33.7541 26.5668 35.4994 29.1958 35.4994H29.2343C31.1098 35.4902 32.0045 34.5699 32.4371 34.1281C32.5691 33.9924 32.6755 33.8934 32.7506 33.8311C34.5766 31.9941 35.5116 30.6264 35.5025 29.7501C35.4896 28.8554 34.3768 27.7976 32.8386 26.3346C32.3491 25.8689 31.8175 25.3629 31.2565 24.8019C29.8026 23.3517 29.0821 23.5993 27.4981 24.1566C25.3073 24.9247 22.3006 25.9697 17.6293 21.2966C12.9506 16.6216 13.9975 13.6186 14.7638 11.4277C15.3175 9.84375 15.5705 9.12142 14.1148 7.66575C13.5446 7.09741 13.0331 6.55842 12.562 6.06342C11.1081 4.53442 10.0595 3.42892 9.1703 3.41608H9.15563C8.27747 3.41608 6.91347 4.35475 4.98297 6.28525C4.98847 6.27975 4.9903 6.27792 4.99213 6.27792ZM29.1976 38.2494C24.629 38.2494 18.6725 34.6121 11.4913 27.4346C4.28263 20.2278 0.6398 14.2529 0.667145 9.67508C0.6838 6.65008 2.26963 5.10092 2.86547 4.51975C2.89663 4.48125 3.00297 4.37675 3.03963 4.34008C5.66863 1.70925 7.44147 0.645915 9.20513 0.665801C11.253 0.693582 12.7105 2.22625 14.5548 4.16775C15.0113 4.64808 15.5063 5.17058 16.0581 5.72058C18.7348 8.39725 17.9721 10.5807 17.3598 12.3334C16.6925 14.2456 16.115 15.8956 19.5726 19.3533C23.034 22.8109 24.684 22.2334 26.5888 21.5606C28.3433 20.9482 30.5213 20.1819 33.2016 22.8586C33.7443 23.4012 34.2595 23.8907 34.7343 24.3436C36.685 26.1971 38.225 27.6619 38.251 29.7153C38.2726 31.4661 37.2093 33.2499 34.584 35.8771L33.4216 35.0887L34.4043 36.0494C33.8231 36.6452 32.2758 38.2329 29.249 38.2494H29.1976Z" fill="#151515"/>
</svg>
