<svg width="998" height="813" viewBox="0 0 998 813" fill="none" xmlns="http://www.w3.org/2000/svg">
<path d="M266.335 397.736L279.094 490.236L239.223 515.752L180.215 467.908H191.379V437.606H221.68L266.335 397.736Z" fill="black"/>
<path fill-rule="evenodd" clip-rule="evenodd" d="M331.723 475.883V490.236H312.585L291.852 319.59L362.024 324.374L373.188 397.736C382.119 429.632 402.426 411.026 411.464 397.736L393.921 282.909H362.024V270.15L483.23 223.901C460.903 280.251 416.886 397.417 419.438 415.279C419.631 416.632 419.865 418.144 420.122 419.801C424.104 445.481 433.5 506.088 379.567 554.028C333.636 594.855 248.792 577.419 212.111 563.597L172.241 584.33L564.566 617.821L645.902 592.304V554.028L553.402 198.383L706.505 140.97C742.229 208.59 788.372 234.001 806.979 238.254V265.366C789.117 274.297 799.536 287.162 806.979 292.478V311.616H819.737V292.478C832.496 284.823 825.053 271.214 819.737 265.366V231.875L829.306 223.901C838.237 112.901 755.413 28.8011 712.884 0.625977L649.092 32.5224L642.712 64.4187L271.119 228.685L291.852 276.53L245.602 289.288V319.59H266.335L296.637 515.752H326.938V522.132H285.473V502.994L228.059 538.08V549.244C416.722 619.8 412.134 452.851 411.507 430.05C411.482 429.143 411.464 428.465 411.464 428.038C411.464 419.107 404.021 419.001 400.3 420.064L331.723 475.883ZM559.782 384.977L564.566 557.218H604.437L559.782 384.977ZM483.23 408.9L454.524 428.038L515.127 266.961L518.316 557.218L430.601 554.028C509.704 510.649 498.647 439.201 483.23 408.9Z" fill="black"/>
<path d="M53.7927 756.758C41.6422 756.758 31.3791 754.044 23.0035 748.618C14.6278 743.191 8.67054 735.701 5.13154 726.145L26.0116 713.936C30.8482 726.558 40.3445 732.869 54.5005 732.869C61.1067 732.869 66.0613 731.69 69.3643 729.33C72.6674 726.971 74.3189 723.786 74.3189 719.775C74.3189 715.41 72.3725 712.048 68.4796 709.689C64.5867 707.212 57.6266 704.557 47.5995 701.726C36.7466 698.423 28.194 694.589 21.9418 690.224C14.156 684.444 10.2631 675.951 10.2631 664.744C10.2631 653.419 14.215 644.512 22.1187 638.024C30.0225 631.3 39.6367 627.938 50.9615 627.938C60.8707 627.938 69.6592 630.356 77.327 635.193C84.9949 640.03 90.9522 646.872 95.199 655.719L74.6728 667.575C69.7182 656.958 61.8145 651.649 50.9615 651.649C46.0069 651.649 42.0551 652.829 39.1059 655.188C36.1567 657.43 34.6822 660.379 34.6822 664.036C34.6822 667.929 36.2747 671.114 39.4598 673.591C42.9988 676.068 49.251 678.664 58.2165 681.377L66.7101 684.208C68.2436 684.68 70.8979 685.683 74.6728 687.216C78.2118 688.514 80.8071 689.753 82.4586 690.932C88.239 694.471 92.1319 698.128 94.1373 701.903C97.2044 706.858 98.738 712.697 98.738 719.421C98.738 730.864 94.5502 739.947 86.1745 746.671C77.7989 753.396 67.005 756.758 53.7927 756.758ZM161.619 665.805V687.747H141.623V724.553C141.623 727.62 142.39 729.861 143.924 731.277C145.457 732.692 147.699 733.518 150.648 733.754C153.597 733.872 157.254 733.813 161.619 733.577V754.28C146.165 756.05 135.135 754.634 128.529 750.033C122.041 745.315 118.797 736.821 118.797 724.553V687.747H103.402V665.805H118.797V647.933L141.623 641.032V665.805H161.619ZM242.189 676.245V665.805H265.015V754.28H242.189V743.84C235.347 752.452 225.733 756.758 213.346 756.758C201.549 756.758 191.404 752.275 182.911 743.309C174.535 734.226 170.347 723.137 170.347 710.043C170.347 697.067 174.535 686.037 182.911 676.953C191.404 667.87 201.549 663.328 213.346 663.328C225.733 663.328 235.347 667.634 242.189 676.245ZM200.075 728.092C204.676 732.692 210.515 734.993 217.593 734.993C224.671 734.993 230.51 732.692 235.111 728.092C239.83 723.373 242.189 717.357 242.189 710.043C242.189 702.729 239.83 696.772 235.111 692.171C230.51 687.452 224.671 685.093 217.593 685.093C210.515 685.093 204.676 687.452 200.075 692.171C195.474 696.772 193.174 702.729 193.174 710.043C193.174 717.357 195.474 723.373 200.075 728.092ZM334.906 663.328C344.698 663.328 352.66 666.572 358.795 673.06C365.165 679.666 368.35 688.632 368.35 699.957V754.28H345.523V702.788C345.523 697.008 343.931 692.525 340.746 689.34C337.679 686.155 333.432 684.562 328.005 684.562C321.989 684.562 317.212 686.45 313.673 690.224C310.251 693.881 308.541 699.308 308.541 706.504V754.28H285.714V665.805H308.541V675.715C313.967 667.457 322.756 663.328 334.906 663.328ZM454.905 676.245V630.415H477.731V754.28H454.905V743.84C448.181 752.452 438.625 756.758 426.239 756.758C414.324 756.758 404.12 752.275 395.627 743.309C387.251 734.226 383.063 723.137 383.063 710.043C383.063 697.067 387.251 686.037 395.627 676.953C404.12 667.87 414.324 663.328 426.239 663.328C438.625 663.328 448.181 667.634 454.905 676.245ZM412.791 728.092C417.627 732.692 423.526 734.993 430.486 734.993C437.564 734.993 443.403 732.692 448.004 728.092C452.604 723.373 454.905 717.357 454.905 710.043C454.905 702.729 452.604 696.772 448.004 692.171C443.403 687.452 437.564 685.093 430.486 685.093C423.408 685.093 417.509 687.452 412.791 692.171C408.19 696.772 405.89 702.729 405.89 710.043C405.89 717.357 408.19 723.373 412.791 728.092ZM565.848 676.245V665.805H588.675V754.28H565.848V743.84C559.006 752.452 549.392 756.758 537.005 756.758C525.209 756.758 515.063 752.275 506.57 743.309C498.194 734.226 494.006 723.137 494.006 710.043C494.006 697.067 498.194 686.037 506.57 676.953C515.063 667.87 525.209 663.328 537.005 663.328C549.392 663.328 559.006 667.634 565.848 676.245ZM523.734 728.092C528.335 732.692 534.174 734.993 541.252 734.993C548.33 734.993 554.169 732.692 558.77 728.092C563.489 723.373 565.848 717.357 565.848 710.043C565.848 702.729 563.489 696.772 558.77 692.171C554.169 687.452 548.33 685.093 541.252 685.093C534.174 685.093 528.335 687.452 523.734 692.171C519.133 696.772 516.833 702.729 516.833 710.043C516.833 717.357 519.133 723.373 523.734 728.092ZM632.2 665.805V681.023C634.205 675.479 637.626 671.291 642.463 668.46C647.3 665.51 652.844 664.036 659.096 664.036V689.517C652.136 688.573 645.884 689.989 640.34 693.763C634.913 697.42 632.2 703.496 632.2 711.989V754.28H609.374V665.805H632.2ZM736.227 676.245V630.415H759.054V754.28H736.227V743.84C729.503 752.452 719.948 756.758 707.561 756.758C695.647 756.758 685.443 752.275 676.949 743.309C668.573 734.226 664.386 723.137 664.386 710.043C664.386 697.067 668.573 686.037 676.949 676.953C685.443 667.87 695.647 663.328 707.561 663.328C719.948 663.328 729.503 667.634 736.227 676.245ZM694.113 728.092C698.95 732.692 704.848 734.993 711.808 734.993C718.886 734.993 724.725 732.692 729.326 728.092C733.927 723.373 736.227 717.357 736.227 710.043C736.227 702.729 733.927 696.772 729.326 692.171C724.725 687.452 718.886 685.093 711.808 685.093C704.73 685.093 698.832 687.452 694.113 692.171C689.512 696.772 687.212 702.729 687.212 710.043C687.212 717.357 689.512 723.373 694.113 728.092Z" fill="#5DABE6"/>
<path d="M885.215 738.178C872.71 750.564 857.493 756.758 839.562 756.758C821.631 756.758 806.413 750.564 793.909 738.178C781.522 725.555 775.329 710.279 775.329 692.348C775.329 674.299 781.522 659.081 793.909 646.695C806.413 634.19 821.631 627.938 839.562 627.938C857.493 627.938 872.71 634.19 885.215 646.695C897.719 659.081 903.971 674.299 903.971 692.348C903.971 710.397 897.719 725.673 885.215 738.178ZM811.073 721.545C818.623 729.094 828.119 732.869 839.562 732.869C851.004 732.869 860.501 729.094 868.051 721.545C875.718 713.877 879.552 704.145 879.552 692.348C879.552 680.551 875.718 670.819 868.051 663.151C860.383 655.483 850.886 651.649 839.562 651.649C828.237 651.649 818.741 655.483 811.073 663.151C803.405 670.819 799.571 680.551 799.571 692.348C799.571 704.145 803.405 713.877 811.073 721.545ZM931.397 655.188C927.622 655.188 924.319 653.832 921.488 651.119C918.775 648.287 917.418 644.984 917.418 641.209C917.418 637.434 918.775 634.131 921.488 631.3C924.319 628.469 927.622 627.053 931.397 627.053C935.29 627.053 938.593 628.469 941.306 631.3C944.138 634.131 945.553 637.434 945.553 641.209C945.553 644.984 944.138 648.287 941.306 651.119C938.593 653.832 935.29 655.188 931.397 655.188ZM942.899 754.28H920.072V665.805H942.899V754.28ZM986.618 754.28H963.791V625.107H986.618V754.28Z" fill="#2996AF"/>
</svg>
