<svg width="338" height="106" viewBox="0 0 338 106" fill="none" xmlns="http://www.w3.org/2000/svg">
<path d="M16.0805 67.8653L18.261 83.6734L11.4472 88.0341L1.36276 79.8576H3.27062V74.6791H8.4491L16.0805 67.8653Z" fill="black"/>
<path fill-rule="evenodd" clip-rule="evenodd" d="M27.2552 81.2205V83.6734H23.9845L20.4414 54.5103L32.4336 55.328L34.3415 67.8653C35.8678 73.3164 39.3383 70.1366 40.8827 67.8653L37.8847 48.2416H32.4336V46.0612L53.1475 38.1572C49.3318 47.7874 41.8094 67.8108 42.2455 70.8634C42.2785 71.0947 42.3186 71.3531 42.3625 71.6363C43.0429 76.0249 44.6488 86.3824 35.4317 94.5754C27.5822 101.553 13.0825 98.5728 6.81379 96.2107L0 99.7539L67.0477 105.477L80.9478 101.117V94.5754L65.1398 33.7964L91.3048 23.9845C97.4099 35.5407 105.296 39.8834 108.476 40.6102V45.2436C105.423 46.7698 107.204 48.9684 108.476 49.8769V53.1475H110.656V49.8769C112.836 48.5687 111.564 46.2429 110.656 45.2436V39.52L112.291 38.1572C113.818 19.1876 99.663 4.81508 92.395 0L81.4929 5.45103L80.4027 10.9021L16.8982 38.9749L20.4414 47.1514L12.5374 49.3318V54.5103H16.0805L21.259 88.0341H26.4375V89.1244H19.3512V85.8537L9.5393 91.8499V93.7577C41.7814 105.816 40.9973 77.2844 40.8902 73.3877C40.8859 73.2328 40.8827 73.1169 40.8827 73.0439C40.8827 71.5176 39.6108 71.4995 38.9749 71.6812L27.2552 81.2205ZM66.23 65.6849L67.0477 95.1205H73.8615L66.23 65.6849ZM53.1475 69.7732L48.2416 73.0439L58.5986 45.5161L59.1437 95.1205L44.1534 94.5754C57.6719 87.162 55.7822 74.9517 53.1475 69.7732Z" fill="black"/>
<path d="M134.559 71.901C131.948 71.901 129.742 71.318 127.943 70.152C126.143 68.986 124.863 67.3764 124.103 65.3232L128.589 62.6997C129.628 65.4119 131.669 66.768 134.711 66.768C136.13 66.768 137.195 66.5146 137.904 66.0076C138.614 65.5007 138.969 64.8163 138.969 63.9545C138.969 63.0166 138.551 62.2942 137.714 61.7872C136.878 61.2549 135.382 60.6846 133.228 60.0763C130.896 59.3665 129.058 58.5427 127.715 57.6049C126.042 56.3628 125.205 54.5378 125.205 52.1298C125.205 49.6964 126.054 47.7826 127.753 46.3885C129.451 44.9437 131.517 44.2213 133.95 44.2213C136.079 44.2213 137.968 44.7409 139.615 45.7802C141.263 46.8194 142.543 48.2896 143.456 50.1907L139.045 52.7381C137.98 50.4568 136.282 49.3162 133.95 49.3162C132.886 49.3162 132.036 49.5696 131.403 50.0766C130.769 50.5582 130.452 51.1919 130.452 51.9777C130.452 52.8141 130.794 53.4985 131.479 54.0308C132.239 54.5631 133.583 55.1208 135.509 55.7038L137.334 56.3121C137.664 56.4135 138.234 56.629 139.045 56.9585C139.806 57.2373 140.363 57.5035 140.718 57.7569C141.96 58.5174 142.797 59.3032 143.227 60.1143C143.886 61.1789 144.216 62.4336 144.216 63.8784C144.216 66.3371 143.316 68.2889 141.516 69.7337C139.717 71.1785 137.397 71.901 134.559 71.901ZM157.727 52.3579V57.0726H153.431V64.981C153.431 65.6401 153.596 66.1217 153.925 66.4259C154.255 66.73 154.736 66.9075 155.37 66.9582C156.004 66.9835 156.789 66.9708 157.727 66.9201V71.3687C154.407 71.7489 152.037 71.4447 150.617 70.4561C149.223 69.4422 148.526 67.6172 148.526 64.981V57.0726H145.218V52.3579H148.526V48.5177L153.431 47.0349V52.3579H157.727ZM175.04 54.6012V52.3579H179.944V71.3687H175.04V69.1254C173.569 70.9758 171.504 71.901 168.842 71.901C166.307 71.901 164.127 70.9377 162.302 69.0113C160.503 67.0595 159.603 64.6769 159.603 61.8633C159.603 59.075 160.503 56.705 162.302 54.7532C164.127 52.8015 166.307 51.8256 168.842 51.8256C171.504 51.8256 173.569 52.7508 175.04 54.6012ZM165.99 65.7415C166.979 66.73 168.234 67.2243 169.755 67.2243C171.275 67.2243 172.53 66.73 173.519 65.7415C174.533 64.7276 175.04 63.4348 175.04 61.8633C175.04 60.2917 174.533 59.0117 173.519 58.0231C172.53 57.0092 171.275 56.5022 169.755 56.5022C168.234 56.5022 166.979 57.0092 165.99 58.0231C165.002 59.0117 164.508 60.2917 164.508 61.8633C164.508 63.4348 165.002 64.7276 165.99 65.7415ZM194.962 51.8256C197.066 51.8256 198.777 52.5226 200.095 53.9168C201.464 55.3362 202.148 57.2627 202.148 59.696V71.3687H197.243V60.3044C197.243 59.0623 196.901 58.0991 196.217 57.4147C195.558 56.7304 194.645 56.3882 193.479 56.3882C192.186 56.3882 191.16 56.7937 190.399 57.6049C189.664 58.3906 189.297 59.5566 189.297 61.1028V71.3687H184.392V52.3579H189.297V54.4871C190.463 52.7128 192.351 51.8256 194.962 51.8256ZM220.746 54.6012V44.7536H225.651V71.3687H220.746V69.1254C219.301 70.9758 217.248 71.901 214.587 71.901C212.027 71.901 209.834 70.9377 208.009 69.0113C206.209 67.0595 205.31 64.6769 205.31 61.8633C205.31 59.075 206.209 56.705 208.009 54.7532C209.834 52.8015 212.027 51.8256 214.587 51.8256C217.248 51.8256 219.301 52.7508 220.746 54.6012ZM211.697 65.7415C212.736 66.73 214.004 67.2243 215.499 67.2243C217.02 67.2243 218.275 66.73 219.263 65.7415C220.252 64.7276 220.746 63.4348 220.746 61.8633C220.746 60.2917 220.252 59.0117 219.263 58.0231C218.275 57.0092 217.02 56.5022 215.499 56.5022C213.978 56.5022 212.711 57.0092 211.697 58.0231C210.709 59.0117 210.214 60.2917 210.214 61.8633C210.214 63.4348 210.709 64.7276 211.697 65.7415ZM244.585 54.6012V52.3579H249.49V71.3687H244.585V69.1254C243.115 70.9758 241.049 71.901 238.387 71.901C235.853 71.901 233.673 70.9377 231.848 69.0113C230.048 67.0595 229.148 64.6769 229.148 61.8633C229.148 59.075 230.048 56.705 231.848 54.7532C233.673 52.8015 235.853 51.8256 238.387 51.8256C241.049 51.8256 243.115 52.7508 244.585 54.6012ZM235.536 65.7415C236.524 66.73 237.779 67.2243 239.3 67.2243C240.821 67.2243 242.075 66.73 243.064 65.7415C244.078 64.7276 244.585 63.4348 244.585 61.8633C244.585 60.2917 244.078 59.0117 243.064 58.0231C242.075 57.0092 240.821 56.5022 239.3 56.5022C237.779 56.5022 236.524 57.0092 235.536 58.0231C234.547 59.0117 234.053 60.2917 234.053 61.8633C234.053 63.4348 234.547 64.7276 235.536 65.7415ZM258.842 52.3579V55.6277C259.273 54.4364 260.008 53.5366 261.047 52.9282C262.087 52.2945 263.278 51.9777 264.621 51.9777V57.4528C263.126 57.25 261.782 57.5542 260.591 58.3653C259.425 59.1511 258.842 60.4565 258.842 62.2815V71.3687H253.937V52.3579H258.842ZM281.195 54.6012V44.7536H286.099V71.3687H281.195V69.1254C279.75 70.9758 277.697 71.901 275.035 71.901C272.475 71.901 270.282 70.9377 268.457 69.0113C266.658 67.0595 265.758 64.6769 265.758 61.8633C265.758 59.075 266.658 56.705 268.457 54.7532C270.282 52.8015 272.475 51.8256 275.035 51.8256C277.697 51.8256 279.75 52.7508 281.195 54.6012ZM272.145 65.7415C273.185 66.73 274.452 67.2243 275.948 67.2243C277.468 67.2243 278.723 66.73 279.712 65.7415C280.7 64.7276 281.195 63.4348 281.195 61.8633C281.195 60.2917 280.7 59.0117 279.712 58.0231C278.723 57.0092 277.468 56.5022 275.948 56.5022C274.427 56.5022 273.159 57.0092 272.145 58.0231C271.157 59.0117 270.663 60.2917 270.663 61.8633C270.663 63.4348 271.157 64.7276 272.145 65.7415Z" fill="#5DABE6"/>
<path d="M313.208 67.9087C310.521 70.5702 307.251 71.901 303.398 71.901C299.545 71.901 296.276 70.5702 293.589 67.9087C290.927 65.1965 289.596 61.914 289.596 58.0611C289.596 54.1829 290.927 50.9131 293.589 48.2516C296.276 45.5647 299.545 44.2213 303.398 44.2213C307.251 44.2213 310.521 45.5647 313.208 48.2516C315.895 50.9131 317.238 54.1829 317.238 58.0611C317.238 61.9393 315.895 65.2218 313.208 67.9087ZM297.277 64.3347C298.899 65.9569 300.94 66.768 303.398 66.768C305.857 66.768 307.897 65.9569 309.52 64.3347C311.167 62.6871 311.991 60.5959 311.991 58.0611C311.991 55.5263 311.167 53.4352 309.52 51.7876C307.872 50.14 305.832 49.3162 303.398 49.3162C300.965 49.3162 298.924 50.14 297.277 51.7876C295.629 53.4352 294.805 55.5263 294.805 58.0611C294.805 60.5959 295.629 62.6871 297.277 64.3347ZM323.131 50.0766C322.32 50.0766 321.61 49.7851 321.002 49.2021C320.419 48.5937 320.127 47.884 320.127 47.0729C320.127 46.2618 320.419 45.552 321.002 44.9437C321.61 44.3353 322.32 44.0312 323.131 44.0312C323.968 44.0312 324.677 44.3353 325.26 44.9437C325.869 45.552 326.173 46.2618 326.173 47.0729C326.173 47.884 325.869 48.5937 325.26 49.2021C324.677 49.7851 323.968 50.0766 323.131 50.0766ZM325.603 71.3687H320.698V52.3579H325.603V71.3687ZM334.997 71.3687H330.092V43.6129H334.997V71.3687Z" fill="#2996AF"/>
</svg>
