<svg width="31" height="37" viewBox="0 0 31 37" fill="none" xmlns="http://www.w3.org/2000/svg">
<path fill-rule="evenodd" clip-rule="evenodd" d="M15.457 0.666504C23.7969 0.666504 30.582 7.503 30.582 15.907C30.582 26.2378 18.746 36.4165 15.457 36.4165C12.168 36.4165 0.332031 26.2378 0.332031 15.907C0.332031 7.503 7.1172 0.666504 15.457 0.666504ZM15.457 3.4165C8.63336 3.4165 3.08203 9.021 3.08203 15.907C3.08203 24.6685 13.3927 33.2045 15.457 33.6592C17.5214 33.2027 27.832 24.6667 27.832 15.907C27.832 9.021 22.2807 3.4165 15.457 3.4165ZM15.4589 9.83317C18.7442 9.83317 21.4172 12.5062 21.4172 15.7933C21.4172 19.0787 18.7442 21.7498 15.4589 21.7498C12.1735 21.7498 9.50053 19.0787 9.50053 15.7933C9.50053 12.5062 12.1735 9.83317 15.4589 9.83317ZM15.4589 12.5832C13.6897 12.5832 12.2505 14.0223 12.2505 15.7933C12.2505 17.5625 13.6897 18.9998 15.4589 18.9998C17.228 18.9998 18.6672 17.5625 18.6672 15.7933C18.6672 14.0223 17.228 12.5832 15.4589 12.5832Z" fill="#151515"/>
</svg>
