<svg width="41" height="37" viewBox="0 0 41 37" fill="none" xmlns="http://www.w3.org/2000/svg">
<path fill-rule="evenodd" clip-rule="evenodd" d="M29.5412 0.666504C35.6462 0.666504 40.2497 5.64767 40.2497 12.2532V24.8445C40.2497 28.2252 39.0543 31.2795 36.8818 33.4465C34.933 35.388 32.4048 36.4165 29.5705 36.4165H11.5067C8.67784 36.4165 6.15151 35.3898 4.20084 33.4465C2.02834 31.2795 0.833008 28.2252 0.833008 24.8445V12.2532C0.833008 5.64767 5.43651 0.666504 11.5415 0.666504H29.5412ZM29.5412 3.4165H11.5415C6.93067 3.4165 3.58301 7.13267 3.58301 12.2532V24.8445C3.58301 27.49 4.49234 29.8532 6.14234 31.4977C7.56501 32.9185 9.42217 33.6665 11.5122 33.6665H29.5412C29.5448 33.6628 29.5595 33.6665 29.5705 33.6665C31.6623 33.6665 33.5177 32.9185 34.9403 31.4977C36.5922 29.8532 37.4997 27.49 37.4997 24.8445V12.2532C37.4997 7.13267 34.152 3.4165 29.5412 3.4165ZM32.4305 11.9026C32.909 12.4911 32.8192 13.3565 32.2307 13.8368L24.0833 20.4588C23.053 21.2765 21.821 21.6853 20.5908 21.6853C19.3643 21.6853 18.1415 21.2801 17.1185 20.4698L8.89601 13.8405C8.30384 13.3638 8.21217 12.4966 8.68701 11.9063C9.16551 11.3178 10.0308 11.2243 10.6212 11.6991L18.8363 18.3211C19.8685 19.1388 21.3223 19.1388 22.3618 18.3138L30.4945 11.7028C31.0848 11.2206 31.9502 11.3123 32.4305 11.9026Z" fill="#151515"/>
</svg>
