<svg width="999" height="813" viewBox="0 0 999 813" fill="none" xmlns="http://www.w3.org/2000/svg">
<path d="M266.469 397.736L279.227 490.236L239.357 515.752L180.349 467.908H191.512V437.606H221.814L266.469 397.736Z" fill="white"/>
<path fill-rule="evenodd" clip-rule="evenodd" d="M331.856 475.883V490.236H312.719L291.986 319.59L362.158 324.374L373.322 397.736C382.253 429.632 402.56 411.026 411.597 397.736L394.054 282.909H362.158V270.15L483.364 223.901C461.037 280.251 417.02 397.417 419.571 415.279C419.765 416.632 419.999 418.144 420.256 419.801C424.238 445.481 433.634 506.088 379.701 554.028C333.77 594.855 248.926 577.419 212.245 563.597L172.375 584.33L564.7 617.821L646.036 592.304V554.028L553.536 198.383L706.639 140.97C742.363 208.59 788.506 234.001 807.112 238.254V265.366C789.25 274.297 799.67 287.162 807.112 292.478V311.616H819.871V292.478C832.629 284.823 825.187 271.214 819.871 265.366V231.875L829.44 223.901C838.371 112.901 755.547 28.8011 713.018 0.625977L649.225 32.5224L642.846 64.4187L271.253 228.685L291.986 276.53L245.736 289.288V319.59H266.469L296.77 515.752H327.072V522.132H285.607V502.994L228.193 538.08V549.244C416.856 619.8 412.268 452.851 411.641 430.05C411.616 429.143 411.597 428.465 411.597 428.038C411.597 419.107 404.155 419.001 400.434 420.064L331.856 475.883ZM559.915 384.977L564.7 557.218H604.57L559.915 384.977ZM483.364 408.9L454.657 428.038L515.261 266.961L518.45 557.218L430.735 554.028C509.838 510.649 498.781 439.201 483.364 408.9Z" fill="white"/>
<path d="M53.926 756.758C41.7755 756.758 31.5124 754.044 23.1368 748.618C14.7611 743.191 8.80384 735.701 5.26484 726.145L26.1449 713.936C30.9815 726.558 40.4779 732.869 54.6338 732.869C61.24 732.869 66.1946 731.69 69.4976 729.33C72.8007 726.971 74.4522 723.786 74.4522 719.775C74.4522 715.41 72.5058 712.048 68.6129 709.689C64.72 707.212 57.7599 704.557 47.7328 701.726C36.8799 698.423 28.3273 694.589 22.0751 690.224C14.2893 684.444 10.3964 675.951 10.3964 664.744C10.3964 653.419 14.3483 644.512 22.252 638.024C30.1558 631.3 39.7701 627.938 51.0948 627.938C61.004 627.938 69.7925 630.356 77.4604 635.193C85.1282 640.03 91.0855 646.872 95.3323 655.719L74.8061 667.575C69.8515 656.958 61.9478 651.649 51.0948 651.649C46.1402 651.649 42.1884 652.829 39.2392 655.188C36.29 657.43 34.8155 660.379 34.8155 664.036C34.8155 667.929 36.408 671.114 39.5931 673.591C43.1321 676.068 49.3843 678.664 58.3498 681.377L66.8434 684.208C68.3769 684.68 71.0312 685.683 74.8061 687.216C78.3451 688.514 80.9404 689.753 82.5919 690.932C88.3723 694.471 92.2652 698.128 94.2706 701.903C97.3377 706.858 98.8713 712.697 98.8713 719.421C98.8713 730.864 94.6835 739.947 86.3078 746.671C77.9322 753.396 67.1383 756.758 53.926 756.758ZM161.752 665.805V687.747H141.757V724.553C141.757 727.62 142.523 729.861 144.057 731.277C145.591 732.692 147.832 733.518 150.781 733.754C153.73 733.872 157.387 733.813 161.752 733.577V754.28C146.298 756.05 135.269 754.634 128.662 750.033C122.174 745.315 118.93 736.821 118.93 724.553V687.747H103.536V665.805H118.93V647.933L141.757 641.032V665.805H161.752ZM242.322 676.245V665.805H265.149V754.28H242.322V743.84C235.48 752.452 225.866 756.758 213.479 756.758C201.683 756.758 191.538 752.275 183.044 743.309C174.668 734.226 170.481 723.137 170.481 710.043C170.481 697.067 174.668 686.037 183.044 676.953C191.538 667.87 201.683 663.328 213.479 663.328C225.866 663.328 235.48 667.634 242.322 676.245ZM200.208 728.092C204.809 732.692 210.648 734.993 217.726 734.993C224.804 734.993 230.644 732.692 235.244 728.092C239.963 723.373 242.322 717.357 242.322 710.043C242.322 702.729 239.963 696.772 235.244 692.171C230.644 687.452 224.804 685.093 217.726 685.093C210.648 685.093 204.809 687.452 200.208 692.171C195.608 696.772 193.307 702.729 193.307 710.043C193.307 717.357 195.608 723.373 200.208 728.092ZM335.04 663.328C344.831 663.328 352.794 666.572 358.928 673.06C365.298 679.666 368.483 688.632 368.483 699.957V754.28H345.657V702.788C345.657 697.008 344.064 692.525 340.879 689.34C337.812 686.155 333.565 684.562 328.139 684.562C322.122 684.562 317.345 686.45 313.806 690.224C310.385 693.881 308.674 699.308 308.674 706.504V754.28H285.848V665.805H308.674V675.715C314.101 667.457 322.889 663.328 335.04 663.328ZM455.038 676.245V630.415H477.865V754.28H455.038V743.84C448.314 752.452 438.759 756.758 426.372 756.758C414.458 756.758 404.253 752.275 395.76 743.309C387.384 734.226 383.196 723.137 383.196 710.043C383.196 697.067 387.384 686.037 395.76 676.953C404.253 667.87 414.458 663.328 426.372 663.328C438.759 663.328 448.314 667.634 455.038 676.245ZM412.924 728.092C417.761 732.692 423.659 734.993 430.619 734.993C437.697 734.993 443.536 732.692 448.137 728.092C452.738 723.373 455.038 717.357 455.038 710.043C455.038 702.729 452.738 696.772 448.137 692.171C443.536 687.452 437.697 685.093 430.619 685.093C423.541 685.093 417.643 687.452 412.924 692.171C408.323 696.772 406.023 702.729 406.023 710.043C406.023 717.357 408.323 723.373 412.924 728.092ZM565.981 676.245V665.805H588.808V754.28H565.981V743.84C559.139 752.452 549.525 756.758 537.139 756.758C525.342 756.758 515.197 752.275 506.703 743.309C498.328 734.226 494.14 723.137 494.14 710.043C494.14 697.067 498.328 686.037 506.703 676.953C515.197 667.87 525.342 663.328 537.139 663.328C549.525 663.328 559.139 667.634 565.981 676.245ZM523.867 728.092C528.468 732.692 534.307 734.993 541.385 734.993C548.463 734.993 554.303 732.692 558.903 728.092C563.622 723.373 565.981 717.357 565.981 710.043C565.981 702.729 563.622 696.772 558.903 692.171C554.303 687.452 548.463 685.093 541.385 685.093C534.307 685.093 528.468 687.452 523.867 692.171C519.267 696.772 516.966 702.729 516.966 710.043C516.966 717.357 519.267 723.373 523.867 728.092ZM632.333 665.805V681.023C634.339 675.479 637.76 671.291 642.596 668.46C647.433 665.51 652.977 664.036 659.23 664.036V689.517C652.27 688.573 646.017 689.989 640.473 693.763C635.047 697.42 632.333 703.496 632.333 711.989V754.28H609.507V665.805H632.333ZM736.36 676.245V630.415H759.187V754.28H736.36V743.84C729.636 752.452 720.081 756.758 707.695 756.758C695.78 756.758 685.576 752.275 677.082 743.309C668.707 734.226 664.519 723.137 664.519 710.043C664.519 697.067 668.707 686.037 677.082 676.953C685.576 667.87 695.78 663.328 707.695 663.328C720.081 663.328 729.636 667.634 736.36 676.245ZM694.246 728.092C699.083 732.692 704.981 734.993 711.941 734.993C719.019 734.993 724.859 732.692 729.459 728.092C734.06 723.373 736.36 717.357 736.36 710.043C736.36 702.729 734.06 696.772 729.459 692.171C724.859 687.452 719.019 685.093 711.941 685.093C704.863 685.093 698.965 687.452 694.246 692.171C689.646 696.772 687.345 702.729 687.345 710.043C687.345 717.357 689.646 723.373 694.246 728.092ZM885.348 738.178C872.844 750.564 857.626 756.758 839.695 756.758C821.764 756.758 806.546 750.564 794.042 738.178C781.655 725.555 775.462 710.279 775.462 692.348C775.462 674.299 781.655 659.081 794.042 646.695C806.546 634.19 821.764 627.938 839.695 627.938C857.626 627.938 872.844 634.19 885.348 646.695C897.852 659.081 904.105 674.299 904.105 692.348C904.105 710.397 897.852 725.673 885.348 738.178ZM811.206 721.545C818.756 729.094 828.252 732.869 839.695 732.869C851.138 732.869 860.634 729.094 868.184 721.545C875.852 713.877 879.686 704.145 879.686 692.348C879.686 680.551 875.852 670.819 868.184 663.151C860.516 655.483 851.02 651.649 839.695 651.649C828.37 651.649 818.874 655.483 811.206 663.151C803.538 670.819 799.704 680.551 799.704 692.348C799.704 704.145 803.538 713.877 811.206 721.545ZM931.531 655.188C927.756 655.188 924.453 653.832 921.621 651.119C918.908 648.287 917.552 644.984 917.552 641.209C917.552 637.434 918.908 634.131 921.621 631.3C924.453 628.469 927.756 627.053 931.531 627.053C935.423 627.053 938.727 628.469 941.44 631.3C944.271 634.131 945.687 637.434 945.687 641.209C945.687 644.984 944.271 648.287 941.44 651.119C938.727 653.832 935.423 655.188 931.531 655.188ZM943.032 754.28H920.206V665.805H943.032V754.28ZM986.751 754.28H963.925V625.107H986.751V754.28Z" fill="white"/>
</svg>
